# xmcd CD database file
#
# Track frame offsets:
#	150
#	15525
#	37275
#	48448
#	57975
#	74325
#	90678
#	112440
#	134400
#
# Disc length: 2027 seconds
#
# Revision: 0
# Processed by: cddbd v1.4PL0 Copyright (c) Steve Scherf et al.
# Submitted via: Feurio! 1.65 - http://www.feurio.com
#
DISCID=8807e909
DTITLE=Pete Haycock's Climax - The Soft Spot
DYEAR=1986
DGENRE=
TTITLE0=The Soft Spot
TTITLE1=Voodoo Lady
TTITLE2=Big Fish
TTITLE3=(Give Me Back My) Honey
TTITLE4=Tell Me That You Want Me
TTITLE5=Love's Just (A Part Of The Blues)
TTITLE6=A Matter Of Timing
TTITLE7=The Hurt Stays Home
TTITLE8=Communication
EXTD=ARD Ride On Music 
EXTT0=
EXTT1=
EXTT2=
EXTT3=
EXTT4=
EXTT5=
EXTT6=
EXTT7=
EXTT8=
PLAYORDER=
